# xmcd CD database file
#
# Track frame offsets:
#	182
#	23737
#	42362
#	68015
#	91722
#	114735
#	139065
#	163410
#	185650
#	214907
#	238270
#	259662
#
# Disc length: 3716 seconds
#
# Revision: 0
# Processed by: cddbd v1.5PL3 Copyright (c) Steve Scherf et al.
# Submitted via: CDex 1.51
#
DISCID=ad0e820c
DTITLE=Various Artist - Salsa de los 90's
DYEAR=1995
DGENRE=Salsa
TTITLE0=guayacan orquesta - invierno en primavera
TTITLE1=costa brava - se quiere bonito
TTITLE2=adalberto santiago - la noche más linda
TTITLE3=tito rojas - a ti volveré
TTITLE4=nino segarra - porque te amo
TTITLE5=chaney - amor de primavera
TTITLE6=guayacan orquesta - yolanda
TTITLE7=roberto lugo - corazón en blanco
TTITLE8=costa brava - flor bonita
TTITLE9=nino segarra - despues de tí qué?
TTITLE10=adalbeto santiago - hay algo en ella
TTITLE11=hansel camacho - verdades
EXTD=YEAR: 1995
EXTT0=
EXTT1=
EXTT2=
EXTT3=
EXTT4=
EXTT5=
EXTT6=
EXTT7=
EXTT8=
EXTT9=
EXTT10=
EXTT11=
PLAYORDER=
